<mxfile host="app.diagrams.net" modified="2023-04-11T13:33:03.327Z" agent="Mozilla/5.0 (iPhone; CPU iPhone OS 15_3 like Mac OS X) AppleWebKit/605.1.15 (KHTML, like Gecko) CriOS/111.0.5563.101 Mobile/15E148 Safari/604.1" version="21.1.5" etag="YreT7wsik9mYo6i6FLd_" type="github">
  <diagram name="Page-1" id="P0GKhGqdJnCtZOOxkVf-">
    <mxGraphModel>
      <root>
        <mxCell id="0" />
        <mxCell id="1" parent="0" />
      </root>
    </mxGraphModel>
  </diagram>
</mxfile>
